<svg width="73" height="80" viewBox="0 0 73 80" fill="none" xmlns="http://www.w3.org/2000/svg">
<path d="M23.4044 23.3109C23.4044 23.3109 23.6269 22.4876 24.3833 22.3961C25.5847 22.2589 26.6971 23.2195 29.6338 24.9575C32.5705 26.6956 39.9567 32.3673 41.692 33.0991C43.4274 33.8309 44.5397 32.1843 44.5842 32.0471C44.6287 31.8641 44.8512 31.361 44.8957 30.9494C44.9402 30.5377 44.8067 30.2175 44.8067 30.2175C44.8067 30.2175 44.3173 31.7269 42.5374 31.6812C40.7576 31.5897 33.6829 26.101 31.7696 24.8661C29.8118 23.6768 27.053 21.6643 26.6971 21.5271C26.3411 21.3899 25.4957 21.1155 24.6058 21.3899C23.7159 21.6643 23.2264 22.945 23.4044 23.3109Z" fill="url(#paint0_linear_15632_42893)"/>
<path d="M26.6966 21.5266C26.6966 21.5266 25.4062 20.932 24.2493 21.8468C23.0925 22.7616 23.2704 24.1795 23.5819 24.8656C23.8934 25.5517 28.3874 31.4063 30.8792 32.504C32.9704 33.4188 34.0828 31.2233 34.0828 31.2233L42.181 15.9922C42.181 15.9922 43.2489 13.9339 45.5626 13.2936C47.5649 12.7447 48.6773 13.2021 48.6773 13.2021L35.6402 37.9012C35.6402 37.9012 35.0172 39.3649 33.4599 39.3649C31.9471 39.3649 30.0782 37.5811 29.7223 37.2152C29.4108 36.8492 24.2048 31.4978 22.2026 27.0153C20.2893 22.7158 23.9379 21.4352 24.4718 21.2979C24.8723 21.2065 26.0292 21.1607 26.6966 21.5266ZM48.5438 13.4765C48.5438 13.4765 46.0966 18.0962 46.4081 17.4558C46.7195 16.8612 47.209 16.2209 48.3659 15.3976C49.5227 14.5743 51.1691 14.4828 51.1691 14.4828C51.1691 14.4828 50.9021 14.1626 50.2792 13.751C49.7007 13.3851 48.7218 13.1106 48.7218 13.1106L48.5438 13.4765Z" fill="url(#paint1_linear_15632_42893)"/>
<defs>
<linearGradient id="paint0_linear_15632_42893" x1="23.3524" y1="27.3036" x2="44.9083" y2="27.3036" gradientUnits="userSpaceOnUse">
<stop stop-color="#450E73"/>
<stop offset="0.5016" stop-color="#185470"/>
<stop offset="0.8517" stop-color="#382B72"/>
<stop offset="0.9109" stop-color="#382772"/>
<stop offset="0.9708" stop-color="#371B71"/>
<stop offset="1" stop-color="#371271"/>
</linearGradient>
<linearGradient id="paint1_linear_15632_42893" x1="36.4065" y1="12.9758" x2="36.4065" y2="39.3677" gradientUnits="userSpaceOnUse">
<stop stop-color="#F1757A"/>
<stop offset="0.5188" stop-color="#B63DCF"/>
<stop offset="0.9282" stop-color="#5E1F94"/>
</linearGradient>
</defs>
</svg>
