<svg width="73" height="80" viewBox="0 0 73 80" fill="none" xmlns="http://www.w3.org/2000/svg">
<path d="M2.93359 73.6961V55.0205H10.7151C12.3637 55.0205 13.7156 55.5289 14.8036 56.5118C15.8917 57.4948 16.4193 58.6472 16.4193 59.969C16.4193 60.4774 16.3533 60.9181 16.2214 61.3926C16.0896 61.8332 15.9247 62.206 15.6939 62.5111C15.4961 62.8161 15.2652 63.0534 15.0674 63.2567C14.8696 63.4601 14.7047 63.6296 14.5399 63.6974L14.3091 63.8329C14.408 63.8668 14.5069 63.9007 14.6388 63.9685C14.7707 64.0363 15.0015 64.2058 15.3642 64.443C15.7269 64.6803 16.0236 64.9853 16.2874 65.2904C16.5512 65.5954 16.782 66.0022 17.0128 66.5445C17.2436 67.0529 17.3425 67.6291 17.3425 68.2392C17.3425 69.7305 16.749 71.0185 15.595 72.1031C14.4409 73.1877 12.9572 73.73 11.1767 73.73H2.93359V73.6961ZM6.82433 58.376V62.3755H10.4513C11.0778 62.3755 11.6053 62.206 11.968 61.8332C12.3307 61.4604 12.5285 60.9858 12.5285 60.3758C12.5285 59.7657 12.3307 59.2911 11.968 58.9183C11.6053 58.5455 11.0778 58.376 10.4513 58.376H6.82433ZM10.9788 70.3745C11.7042 70.3745 12.2648 70.1372 12.7594 69.6966C13.2539 69.256 13.4518 68.6798 13.4518 68.0019C13.4518 67.324 13.221 66.7478 12.7594 66.2733C12.2977 65.7988 11.7042 65.5615 10.9788 65.5615H6.82433V70.3745H10.9788Z" fill="black"/>
<path d="M22.3545 68.3747C22.4864 69.0864 22.8491 69.6965 23.4426 70.1711C24.0361 70.6456 24.7944 70.9167 25.7177 70.9167C26.3771 70.9167 26.9706 70.7811 27.5641 70.51C28.1576 70.2388 28.5203 69.9677 28.7511 69.6965L29.1138 69.2898L30.9273 71.6963L30.6965 71.9335C30.5976 72.0352 30.3668 72.2386 30.0041 72.4758C29.6414 72.7131 29.2787 72.9843 28.916 73.1876C28.5203 73.391 28.0257 73.5604 27.3993 73.7299C26.7728 73.8994 26.1463 73.9672 25.4869 73.9672C23.6074 73.9672 22.0248 73.2893 20.7059 71.9674C19.387 70.6456 18.7275 69.0187 18.7275 67.1545C18.7275 65.2903 19.387 63.6973 20.6729 62.3415C21.9588 61.0197 23.5415 60.3418 25.355 60.3418C27.1685 60.3418 28.6852 60.9519 29.9052 62.206C31.1251 63.46 31.7186 65.0192 31.7186 66.8833L31.5867 68.3408H22.3545V68.3747ZM23.4756 64.104C22.948 64.5446 22.5853 65.1208 22.3875 65.8326H28.2236C28.0917 65.1547 27.762 64.5785 27.2674 64.104C26.7728 63.6295 26.1133 63.4261 25.3879 63.4261C24.6296 63.46 23.9701 63.6634 23.4756 64.104Z" fill="black"/>
<path d="M41.6108 64.1035C41.347 64.0018 40.9513 63.9679 40.4567 63.9679C39.5335 63.9679 38.8081 64.273 38.2806 64.8831C37.753 65.4932 37.4892 66.3405 37.4892 67.459V73.7294H33.9941V60.6463H37.4892V62.2393C37.5881 62.1038 37.72 61.9682 37.9179 61.7648C38.1157 61.5615 38.5114 61.3242 39.1378 60.9853C39.7643 60.6802 40.4238 60.5107 41.1162 60.5107H41.6437V64.1035H41.6108Z" fill="black"/>
<path d="M46.8859 58.342C46.5232 58.7148 45.9957 58.8843 45.3692 58.8843C44.7757 58.8843 44.3141 58.7148 43.9514 58.342C43.5887 57.9691 43.4238 57.4946 43.4238 56.8845C43.4238 56.2744 43.5887 55.7999 43.9514 55.4271C44.3141 55.0542 44.7757 54.8848 45.3692 54.8848C45.9957 54.8848 46.5232 55.0542 46.8859 55.4271C47.2486 55.7999 47.4465 56.2744 47.4465 56.8845C47.4465 57.4946 47.2816 58.003 46.8859 58.342ZM47.1827 73.6959H43.6876V60.6467H47.1827V73.6959Z" fill="black"/>
<path d="M57.5026 64.2393H54.6669V73.6958H51.1719V64.2393H49.3584V61.0194H51.1719V59.2908C51.1719 56.2743 52.5237 54.749 55.1945 54.749C55.5902 54.749 55.9529 54.7829 56.3485 54.8507C56.7442 54.9185 57.041 54.9863 57.2388 55.0541L57.5026 55.1558V58.2062C57.1728 58.0367 56.7112 57.9351 56.2167 57.9351C55.755 57.9351 55.3923 58.0706 55.0956 58.3418C54.7988 58.6129 54.6669 58.9858 54.6669 59.3925V60.9855H57.5026V64.2393Z" fill="black"/>
<path d="M63.2068 73.594L58.2939 60.6465H61.9209L64.8884 69.3233L67.8889 60.6465H71.5159L66.4711 74.5091C65.3171 77.729 63.6684 79.3221 61.5582 79.3221C61.1625 79.3221 60.7998 79.2882 60.4371 79.2204C60.0745 79.1526 59.7777 79.0848 59.6128 79.017L59.3491 78.9153V75.7293C59.6788 75.8988 60.1404 76.0005 60.635 76.0005C61.6901 76.0005 62.4155 75.5259 62.8441 74.543L63.2068 73.594Z" fill="black"/>
<path d="M23.4044 23.3109C23.4044 23.3109 23.6269 22.4876 24.3833 22.3961C25.5847 22.2589 26.6971 23.2195 29.6338 24.9575C32.5705 26.6956 39.9567 32.3673 41.692 33.0991C43.4274 33.8309 44.5397 32.1843 44.5842 32.0471C44.6287 31.8641 44.8512 31.361 44.8957 30.9494C44.9402 30.5377 44.8067 30.2175 44.8067 30.2175C44.8067 30.2175 44.3173 31.7269 42.5374 31.6812C40.7576 31.5897 33.6829 26.101 31.7696 24.8661C29.8118 23.6768 27.053 21.6643 26.6971 21.5271C26.3411 21.3899 25.4957 21.1155 24.6058 21.3899C23.7159 21.6643 23.2264 22.945 23.4044 23.3109Z" fill="url(#paint0_linear_15632_42893)"/>
<path d="M26.6966 21.5266C26.6966 21.5266 25.4062 20.932 24.2493 21.8468C23.0925 22.7616 23.2704 24.1795 23.5819 24.8656C23.8934 25.5517 28.3874 31.4063 30.8792 32.504C32.9704 33.4188 34.0828 31.2233 34.0828 31.2233L42.181 15.9922C42.181 15.9922 43.2489 13.9339 45.5626 13.2936C47.5649 12.7447 48.6773 13.2021 48.6773 13.2021L35.6402 37.9012C35.6402 37.9012 35.0172 39.3649 33.4599 39.3649C31.9471 39.3649 30.0782 37.5811 29.7223 37.2152C29.4108 36.8492 24.2048 31.4978 22.2026 27.0153C20.2893 22.7158 23.9379 21.4352 24.4718 21.2979C24.8723 21.2065 26.0292 21.1607 26.6966 21.5266ZM48.5438 13.4765C48.5438 13.4765 46.0966 18.0962 46.4081 17.4558C46.7195 16.8612 47.209 16.2209 48.3659 15.3976C49.5227 14.5743 51.1691 14.4828 51.1691 14.4828C51.1691 14.4828 50.9021 14.1626 50.2792 13.751C49.7007 13.3851 48.7218 13.1106 48.7218 13.1106L48.5438 13.4765Z" fill="url(#paint1_linear_15632_42893)"/>
<defs>
<linearGradient id="paint0_linear_15632_42893" x1="23.3524" y1="27.3036" x2="44.9083" y2="27.3036" gradientUnits="userSpaceOnUse">
<stop stop-color="#450E73"/>
<stop offset="0.5016" stop-color="#185470"/>
<stop offset="0.8517" stop-color="#382B72"/>
<stop offset="0.9109" stop-color="#382772"/>
<stop offset="0.9708" stop-color="#371B71"/>
<stop offset="1" stop-color="#371271"/>
</linearGradient>
<linearGradient id="paint1_linear_15632_42893" x1="36.4065" y1="12.9758" x2="36.4065" y2="39.3677" gradientUnits="userSpaceOnUse">
<stop stop-color="#F1757A"/>
<stop offset="0.5188" stop-color="#B63DCF"/>
<stop offset="0.9282" stop-color="#5E1F94"/>
</linearGradient>
</defs>
</svg>
